<?xml version="1.0" encoding="utf-8"?>
<!-- Generator: Adobe Illustrator 24.0.2, SVG Export Plug-In . SVG Version: 6.00 Build 0)  -->
<svg version="1.1" id="Livello_1" xmlns="http://www.w3.org/2000/svg" xmlns:xlink="http://www.w3.org/1999/xlink" x="0px" y="0px"
	 viewBox="0 0 329 329" style="enable-background:new 0 0 329 329;" xml:space="preserve">
<style type="text/css">
	.st0{fill:#333333;}
</style>
<path class="st0" d="M178.9,164.8L326.1,17.6c4-4,4-10.4,0-14.4c-4-4-10.4-4-14.4,0L164.5,150.3L17.4,3.2c-4-4-10.4-4-14.4,0
	c-4,4-4,10.4,0,14.4l147.1,147.1L3.1,311.7c-4,4-4,10.4,0,14.4c2,2,4.6,3,7.2,3s5.2-1,7.2-3l146.9-146.9l146.9,146.9
	c2,2,4.6,3,7.2,3s5.2-1,7.2-3c4-4,4-10.4,0-14.4L178.9,164.8z"/>
</svg>
