<svg width="216" height="43" viewBox="0 0 216 43" fill="none" xmlns="http://www.w3.org/2000/svg">
<mask id="mask0_7_21730" style="mask-type:alpha" maskUnits="userSpaceOnUse" x="0" y="5" width="43" height="33">
<rect x="0.106659" y="5.75879" width="42" height="31.6479" fill="#D9D9D9"/>
</mask>
<g mask="url(#mask0_7_21730)">
<path d="M18.4816 -4.12598H26.8816L9.06342 21.5831H0.663422L18.4816 -4.12598Z" fill="white"/>
<path d="M35.2976 -4.12598H43.6976L25.8794 21.5831H17.4794L35.2976 -4.12598Z" fill="white"/>
<path d="M9.07944 21.583H17.4794V29.983H9.07944V21.583Z" fill="white"/>
<path d="M25.8953 21.583H34.2953V47.2921H25.8953V21.583Z" fill="white"/>
</g>
<path d="M62.6287 32.583H59.4927L57.5727 27.463H47.6527L45.7327 32.583H42.5967L51.0127 10.183H54.1807L62.6287 32.583ZM52.6127 14.311L48.7087 24.711H56.5487L52.6127 14.311ZM73.1364 16.231C73.3924 16.231 73.5844 16.2417 73.7124 16.263L73.4884 18.887C73.2324 18.8443 73.0297 18.823 72.8804 18.823C71.5151 18.823 70.3631 19.239 69.4244 20.071C68.5071 20.903 68.0484 22.1083 68.0484 23.687V32.583H65.2964V16.583H68.0484V19.335C68.4111 18.4603 69.0297 17.7243 69.9044 17.127C70.8004 16.5297 71.8777 16.231 73.1364 16.231ZM90.1904 29.479C89.4224 30.5457 88.4411 31.399 87.2464 32.039C86.0731 32.6577 84.7931 32.967 83.4064 32.967C81.8917 32.967 80.4944 32.5937 79.2144 31.847C77.9344 31.1003 76.9104 30.087 76.1424 28.807C75.3957 27.5057 75.0224 26.0977 75.0224 24.583C75.0224 23.0683 75.3957 21.671 76.1424 20.391C76.9104 19.111 77.9344 18.0977 79.2144 17.351C80.4944 16.6043 81.8917 16.231 83.4064 16.231C84.7717 16.231 86.0411 16.5403 87.2144 17.159C88.3877 17.7777 89.3691 18.6097 90.1584 19.655L87.8864 21.191C87.3317 20.487 86.6704 19.943 85.9024 19.559C85.1344 19.175 84.3024 18.983 83.4064 18.983C82.3824 18.983 81.4437 19.239 80.5904 19.751C79.7371 20.2417 79.0544 20.9137 78.5424 21.767C78.0517 22.6203 77.8064 23.559 77.8064 24.583C77.8064 25.607 78.0517 26.5563 78.5424 27.431C79.0544 28.2843 79.7371 28.967 80.5904 29.479C81.4437 29.9697 82.3824 30.215 83.4064 30.215C84.3024 30.215 85.1344 30.023 85.9024 29.639C86.6917 29.2337 87.3531 28.679 87.8864 27.975L90.1904 29.479ZM107.088 32.583H104.336V23.079C104.336 21.5217 103.899 20.4123 103.024 19.751C102.171 19.0683 101.179 18.727 100.048 18.727C99.1737 18.727 98.3524 18.983 97.5844 19.495C96.8377 20.007 96.3257 20.8283 96.0484 21.959V32.583H93.2964V10.183H96.0484V18.311C96.6031 17.6923 97.2751 17.2017 98.0644 16.839C98.8537 16.455 99.6964 16.263 100.592 16.263C101.531 16.263 102.491 16.4657 103.472 16.871C104.454 17.255 105.296 17.9483 106 18.951C106.726 19.9537 107.088 21.3083 107.088 23.015V32.583ZM112.578 12.935C112.045 12.935 111.618 12.7857 111.298 12.487C110.978 12.1883 110.818 11.7723 110.818 11.239C110.818 10.727 110.978 10.3217 111.298 10.023C111.618 9.70301 112.045 9.54301 112.578 9.54301C113.111 9.54301 113.538 9.70301 113.858 10.023C114.178 10.3217 114.338 10.727 114.338 11.239C114.338 11.7723 114.178 12.1883 113.858 12.487C113.559 12.7857 113.133 12.935 112.578 12.935ZM111.202 32.583V16.583H113.954V32.583H111.202ZM123.125 27.591C123.125 28.5723 123.307 29.255 123.669 29.639C124.053 30.0017 124.661 30.183 125.493 30.183C125.749 30.183 126.283 30.1403 127.093 30.055V32.583C126.176 32.6897 125.408 32.743 124.789 32.743C123.275 32.743 122.155 32.3803 121.429 31.655C120.725 30.9297 120.373 29.6283 120.373 27.751V19.111H116.821V16.583H120.373V12.231L123.125 11.239V16.583H127.029V19.111H123.125V27.591ZM137.094 16.199C138.651 16.199 140.038 16.583 141.254 17.351C142.47 18.0977 143.409 19.1217 144.07 20.423C144.753 21.703 145.094 23.1003 145.094 24.615C145.094 24.7857 145.083 24.9777 145.062 25.191C145.041 25.383 145.019 25.543 144.998 25.671H131.526C131.739 27.1003 132.358 28.2737 133.382 29.191C134.427 30.087 135.75 30.535 137.35 30.535C138.331 30.535 139.259 30.311 140.134 29.863C141.03 29.415 141.691 28.8603 142.118 28.199L144.294 29.479C143.59 30.5883 142.63 31.4523 141.414 32.071C140.219 32.6683 138.854 32.967 137.318 32.967C135.633 32.967 134.139 32.6043 132.838 31.879C131.537 31.1537 130.523 30.1617 129.798 28.903C129.073 27.623 128.71 26.183 128.71 24.583C128.71 23.0043 129.062 21.5857 129.766 20.327C130.491 19.047 131.483 18.0443 132.742 17.319C134.022 16.5723 135.473 16.199 137.094 16.199ZM142.47 23.431C142.257 21.9377 141.681 20.7643 140.742 19.911C139.803 19.0577 138.587 18.631 137.094 18.631C136.049 18.631 135.099 18.855 134.246 19.303C133.393 19.751 132.721 20.3483 132.23 21.095C131.739 21.8203 131.483 22.599 131.462 23.431H142.47ZM162.034 29.479C161.266 30.5457 160.285 31.399 159.09 32.039C157.917 32.6577 156.637 32.967 155.25 32.967C153.735 32.967 152.338 32.5937 151.058 31.847C149.778 31.1003 148.754 30.087 147.986 28.807C147.239 27.5057 146.866 26.0977 146.866 24.583C146.866 23.0683 147.239 21.671 147.986 20.391C148.754 19.111 149.778 18.0977 151.058 17.351C152.338 16.6043 153.735 16.231 155.25 16.231C156.615 16.231 157.885 16.5403 159.058 17.159C160.231 17.7777 161.213 18.6097 162.002 19.655L159.73 21.191C159.175 20.487 158.514 19.943 157.746 19.559C156.978 19.175 156.146 18.983 155.25 18.983C154.226 18.983 153.287 19.239 152.434 19.751C151.581 20.2417 150.898 20.9137 150.386 21.767C149.895 22.6203 149.65 23.559 149.65 24.583C149.65 25.607 149.895 26.5563 150.386 27.431C150.898 28.2843 151.581 28.967 152.434 29.479C153.287 29.9697 154.226 30.215 155.25 30.215C156.146 30.215 156.978 30.023 157.746 29.639C158.535 29.2337 159.197 28.679 159.73 27.975L162.034 29.479ZM169.438 27.591C169.438 28.5723 169.619 29.255 169.982 29.639C170.366 30.0017 170.974 30.183 171.806 30.183C172.062 30.183 172.595 30.1403 173.406 30.055V32.583C172.489 32.6897 171.721 32.743 171.102 32.743C169.587 32.743 168.467 32.3803 167.742 31.655C167.038 30.9297 166.686 29.6283 166.686 27.751V19.111H163.134V16.583H166.686V12.231L169.438 11.239V16.583H173.342V19.111H169.438V27.591ZM184.949 16.231C185.205 16.231 185.397 16.2417 185.525 16.263L185.301 18.887C185.045 18.8443 184.842 18.823 184.693 18.823C183.328 18.823 182.176 19.239 181.237 20.071C180.32 20.903 179.861 22.1083 179.861 23.687V32.583H177.109V16.583H179.861V19.335C180.224 18.4603 180.842 17.7243 181.717 17.127C182.613 16.5297 183.69 16.231 184.949 16.231ZM206.494 21.255L213.822 32.583H210.334L204.51 23.559L198.654 32.583H195.134L202.494 21.255L195.294 10.183H198.814L204.51 18.983L210.174 10.183H213.662L206.494 21.255Z" fill="white"/>
</svg>
