<svg width="282" height="248" viewBox="0 0 282 248" fill="none" xmlns="http://www.w3.org/2000/svg">
<path d="M0.863983 246.333L0.863983 246.833L1.36398 246.833L25.4763 246.833L25.4893 246.833L25.5022 246.832C52.4644 245.438 73.9434 238.228 88.6731 222.446C103.4 206.667 111.297 182.408 111.297 147.101L111.297 1.49985L111.297 0.999848L110.797 0.999848L16.2024 0.99984L15.7024 0.99984L15.7024 1.49984L15.7024 98.8767L15.7024 99.3767L16.2024 99.3767L58.3627 99.3767L58.3627 141.537C58.3627 157.258 55.5857 170.115 48.8385 179.264C42.1108 188.386 31.3743 193.902 15.2606 194.826L1.36399 194.826L0.863988 194.826L0.863988 195.326L0.863983 246.333ZM170.578 246.333L170.578 246.833L171.078 246.833L195.19 246.833L195.203 246.833L195.216 246.832C222.178 245.438 243.657 238.228 258.387 222.446C273.114 206.667 281.011 182.408 281.011 147.101L281.011 1.49986L281.011 0.999863L280.511 0.999863L185.916 0.999854L185.416 0.999854L185.416 1.49985L185.416 98.8767L185.416 99.3767L185.916 99.3767L228.077 99.3767L228.077 141.537C228.077 157.258 225.3 170.115 218.552 179.264C211.825 188.386 201.088 193.902 184.975 194.826L171.078 194.826L170.578 194.826L170.578 195.326L170.578 246.333Z" stroke="#474747"/>
</svg>
