<svg width="282" height="248" viewBox="0 0 282 248" fill="none" xmlns="http://www.w3.org/2000/svg">
<path d="M281.416 1.5V1H280.916H256.804H256.791L256.778 1.00067C229.816 2.39527 208.337 9.6053 193.607 25.3871C178.88 41.1664 170.983 65.4253 170.983 100.732V246.333V246.833H171.483H266.078H266.578V246.333V148.956V148.456H266.078H223.917V106.296C223.917 90.5748 226.694 77.7182 233.442 68.5694C240.169 59.4472 250.906 53.9306 267.02 53.0069H280.916H281.416V52.5069V1.5ZM111.702 1.5V1H111.202H87.0899H87.077L87.0641 1.00067C60.1019 2.39527 38.6229 9.6053 23.8932 25.3871C9.16586 41.1664 1.26929 65.4253 1.26929 100.732V246.333V246.833H1.76929H96.3639H96.8639V246.333V148.956V148.456H96.3639H54.2036V106.296C54.2036 90.5748 56.9806 77.7182 63.7278 68.5694C70.4554 59.4472 81.1919 53.9306 97.3056 53.0069H111.202H111.702V52.5069V1.5Z" stroke="#474747"/>
</svg>
