<svg width="56" height="50" viewBox="0 0 56 50" fill="none" xmlns="http://www.w3.org/2000/svg">
<rect x="8.17773" y="1" width="39.1178" height="34.0935" rx="0.478505" fill="#141414" stroke="white" stroke-width="1.2" stroke-linejoin="round"/>
<rect x="8.17773" y="22.5327" width="39.1178" height="12.5607" fill="#141414" stroke="white" stroke-width="1.2" stroke-linejoin="round"/>
<path d="M1 15.714C1 12.5427 3.57081 9.97192 6.74206 9.97192H8.17757V35.0934H47.2953V9.97192H48.7308C51.9021 9.97192 54.4729 12.5427 54.4729 15.714V36.5289C54.4729 39.7002 51.9021 42.271 48.7308 42.271H6.74206C3.57081 42.271 1 39.7002 1 36.5289V15.714Z" fill="#060606" stroke="white" stroke-width="1.2" stroke-linejoin="round"/>
<path d="M8.11496 42.271H14.8439L10.256 49H6.27979L8.11496 42.271Z" stroke="white" stroke-width="1.2" stroke-linejoin="round"/>
<path d="M47.3577 42.271H40.6287L45.2167 49H49.1929L47.3577 42.271Z" stroke="white" stroke-width="1.2" stroke-linejoin="round"/>
</svg>
