<svg width="49" height="51" viewBox="0 0 49 51" fill="none" xmlns="http://www.w3.org/2000/svg">
<path d="M13.464 1.41687C12.9257 1.41687 12.4894 1.85322 12.4894 2.39149V10.0423C12.4894 14.9566 8.86689 19.0386 5.45083 22.5715C2.69541 25.4212 1 29.3023 1 33.5793C1 42.3262 8.09072 49.4169 16.8376 49.4169C25.5844 49.4169 32.6751 42.3262 32.6751 33.5793C32.6751 29.3023 30.9797 25.4213 28.2244 22.5716C24.8084 19.0387 21.186 14.9568 21.186 10.0425V2.39149C21.186 1.85322 20.7496 1.41687 20.2114 1.41687H13.464Z" fill="#060606" stroke="white" stroke-width="1.2"/>
<circle cx="16.8376" cy="32.7874" r="5.7868" fill="#060606" stroke="white" stroke-width="1.2"/>
<path d="M35.4695 18.5679C35.1235 18.5679 34.8431 18.8483 34.8431 19.1942V19.1942C34.8431 25.2627 29.5746 30.5477 27.8683 36.3713C27.6019 37.2807 27.459 38.2428 27.459 39.2383C27.459 44.8598 32.0161 49.4169 37.6376 49.4169C43.2591 49.4169 47.8162 44.8598 47.8162 39.2383C47.8162 38.2429 47.6733 37.2808 47.4069 36.3715C45.7008 30.5478 40.4323 25.2627 40.4323 19.1942V19.1942C40.4323 18.8483 40.1518 18.5679 39.8059 18.5679H35.4695Z" fill="#141414" stroke="white" stroke-width="1.2"/>
</svg>
