<svg width="41" height="50" viewBox="0 0 41 50" fill="none" xmlns="http://www.w3.org/2000/svg">
<path d="M20.5034 1.27059L20.5634 1.3306C29.5978 10.365 29.7374 24.9259 20.9823 34.1311L20.9223 34.0711C11.8879 25.0367 11.7483 10.4758 20.5034 1.27059Z" fill="#141414" stroke="white" stroke-width="1.2" stroke-linejoin="round"/>
<path d="M0.609146 12.0614C11.1144 12.3773 19.5731 20.8359 19.889 31.3412C9.38367 31.0254 0.925023 22.5667 0.609146 12.0614Z" stroke="white" stroke-width="1.2" stroke-linejoin="round"/>
<path d="M40.3869 12.0614C29.8816 12.3773 21.423 20.8359 21.1071 31.3412C31.6124 31.0254 40.0711 22.5667 40.3869 12.0614Z" stroke="white" stroke-width="1.2" stroke-linejoin="round"/>
<rect x="5.48047" y="29.744" width="30.0354" height="4.41279" fill="#060606" stroke="white" stroke-width="1.2" stroke-linejoin="round"/>
<path d="M7.91797 34.1567H33.078L30.231 48.4167H10.7649L7.91797 34.1567Z" fill="#060606" stroke="white" stroke-width="1.2" stroke-linejoin="round"/>
</svg>
