<svg width="18" height="24" viewBox="0 0 18 24" fill="none" xmlns="http://www.w3.org/2000/svg">
<path d="M8.86162 12.6837C10.6853 12.6837 12.1637 11.2053 12.1637 9.38164C12.1637 7.55797 10.6853 6.07959 8.86162 6.07959C7.03795 6.07959 5.55957 7.55797 5.55957 9.38164C5.55957 11.2053 7.03795 12.6837 8.86162 12.6837Z" stroke="white" stroke-linecap="round" stroke-linejoin="round"/>
<path d="M17.1167 9.38159C17.1167 16.8112 8.86157 22.5898 8.86157 22.5898C8.86157 22.5898 0.606445 16.8112 0.606445 9.38159C0.606445 7.1922 1.47618 5.09247 3.02432 3.54434C4.57245 1.9962 6.67218 1.12646 8.86157 1.12646C11.051 1.12646 13.1507 1.9962 14.6988 3.54434C16.247 5.09247 17.1167 7.1922 17.1167 9.38159Z" stroke="white" stroke-linecap="round" stroke-linejoin="round"/>
</svg>
