<svg width="23" height="23" viewBox="0 0 23 23" fill="none" xmlns="http://www.w3.org/2000/svg">
<path d="M14.8229 13.5588C14.9501 13.4742 15.0965 13.4226 15.2487 13.4087C15.4009 13.3949 15.5541 13.4193 15.6945 13.4796L21.1103 15.9061C21.2928 15.9841 21.4452 16.1192 21.5446 16.291C21.6439 16.4628 21.685 16.6622 21.6616 16.8593C21.4831 18.1926 20.8265 19.4158 19.8139 20.3013C18.8012 21.1868 17.5014 21.6744 16.1562 21.6733C12.014 21.6733 8.04148 20.0279 5.11252 17.0989C2.18356 14.1699 0.538088 10.1974 0.538088 6.05525C0.537059 4.71003 1.02463 3.41022 1.91014 2.39755C2.79564 1.38489 4.0188 0.728289 5.35213 0.549873C5.54923 0.526458 5.74862 0.567506 5.92044 0.666874C6.09227 0.766241 6.22729 0.918584 6.3053 1.1011L8.73184 6.52149C8.79146 6.66071 8.81574 6.81251 8.80252 6.96338C8.78929 7.11425 8.73898 7.25951 8.65605 7.38623L6.20194 10.3043C6.11489 10.4356 6.06341 10.5873 6.05254 10.7445C6.04167 10.9018 6.07178 11.0591 6.13993 11.2012C7.08965 13.1454 9.09933 15.131 11.0493 16.0715C11.1921 16.1393 11.3502 16.1688 11.5079 16.1569C11.6656 16.145 11.8174 16.0922 11.9485 16.0037L14.8229 13.5588Z" stroke="white" stroke-linecap="round" stroke-linejoin="round"/>
</svg>
