<svg width="42" height="50" viewBox="0 0 42 50" fill="none" xmlns="http://www.w3.org/2000/svg">
<path d="M1.5 19.4591H41.2241V47.597C41.2241 48.036 41.0498 48.457 40.7393 48.7674C40.4289 49.0778 40.0079 49.2522 39.569 49.2522H3.15517C2.71619 49.2522 2.29519 49.0778 1.98479 48.7674C1.67438 48.457 1.5 48.036 1.5 47.597V19.4591Z" fill="#060606" stroke="white" stroke-width="1.2" stroke-linecap="round" stroke-linejoin="round"/>
<path d="M41.2241 19.4591L21.3621 37.666L1.5 19.4591" fill="#060606"/>
<path d="M41.2241 19.4591L21.3621 37.666L1.5 19.4591" stroke="white" stroke-width="1.2" stroke-linecap="round" stroke-linejoin="round"/>
<path d="M1.55126 19.4591L21.4133 1.25219L41.2754 19.4591" fill="#060606"/>
<path d="M1.55126 19.4591L21.4133 1.25219L41.2754 19.4591" stroke="white" stroke-width="1.2" stroke-linecap="round" stroke-linejoin="round"/>
<path d="M6.51562 10.3557H36.9615L36.9615 23.3068L21.7386 37.666L6.51562 24.0473V10.3557Z" fill="#141414" stroke="white" stroke-width="1.2" stroke-linejoin="round"/>
</svg>
