<svg width="146" height="35" viewBox="0 0 146 35" fill="none" xmlns="http://www.w3.org/2000/svg">
<path d="M136.761 26.5272C135.26 26.5272 133.945 26.2087 132.815 25.5716C131.684 24.9139 130.811 23.9994 130.194 22.8279C129.578 21.6565 129.27 20.2795 129.27 18.697C129.27 17.1351 129.578 15.7684 130.194 14.597C130.811 13.405 131.684 12.4801 132.815 11.8225C133.945 11.1443 135.26 10.8052 136.761 10.8052C138.281 10.8052 139.597 11.1443 140.707 11.8225C141.837 12.5007 142.71 13.4358 143.327 14.6278C143.943 15.7992 144.252 17.1454 144.252 18.6662C144.252 18.8923 144.241 19.1183 144.221 19.3444C144.221 19.5499 144.2 19.7246 144.159 19.8685H132.568V16.8474H141.107L140.491 18.2963C140.491 17.0221 140.182 15.9842 139.566 15.1827C138.97 14.3812 138.035 13.9804 136.761 13.9804C135.651 13.9804 134.757 14.3298 134.079 15.0286C133.4 15.7068 133.061 16.6213 133.061 17.7722V19.4061C133.061 20.6186 133.4 21.5743 134.079 22.273C134.777 22.9512 135.723 23.2903 136.915 23.2903C137.963 23.2903 138.785 23.0745 139.381 22.643C139.977 22.2114 140.491 21.677 140.922 21.0399L143.728 22.643C143.049 23.8966 142.125 24.8625 140.953 25.5408C139.802 26.1984 138.405 26.5272 136.761 26.5272Z" fill="#939393"/>
<path d="M122.859 11.1443L123.876 15.306V26.219H119.837V11.1443H122.859ZM123.043 17.3714L122.304 17.0323V13.9496L122.581 13.6105C122.807 13.2406 123.146 12.8398 123.598 12.4082C124.071 11.9766 124.605 11.6067 125.201 11.2984C125.818 10.9696 126.455 10.8052 127.113 10.8052C127.442 10.8052 127.74 10.8257 128.007 10.8668C128.274 10.9079 128.479 10.9799 128.623 11.0826V14.7511H127.637C126.301 14.7511 125.273 14.9669 124.554 15.3985C123.835 15.8095 123.331 16.4672 123.043 17.3714Z" fill="#939393"/>
<path d="M107.792 26.5887C106.662 26.5887 105.757 26.414 105.079 26.0646C104.401 25.7152 103.877 25.2528 103.507 24.6773C103.158 24.0813 102.921 23.4031 102.798 22.6427C102.675 21.8823 102.613 21.0911 102.613 20.269V11.144H106.651V20.2998C106.651 21.2247 106.847 21.8412 107.237 22.1495C107.648 22.4578 108.131 22.6119 108.686 22.6119C109.2 22.6119 109.714 22.5194 110.227 22.3345C110.741 22.1495 111.224 21.8823 111.676 21.5329C112.149 21.163 112.54 20.7417 112.848 20.269L113.341 22.3961H112.355V11.144H116.393V26.2187H113.372L112.54 23.3518L113.834 23.3826C113.32 23.9786 112.735 24.5232 112.077 25.0165C111.44 25.5097 110.752 25.9002 110.012 26.1879C109.292 26.4551 108.552 26.5887 107.792 26.5887Z" fill="#939393"/>
<path d="M97.2869 26.4964C95.7455 26.4964 94.5227 26.0957 93.6184 25.2941C92.7347 24.4721 92.2928 23.167 92.2928 21.379V11.3293L92.2312 11.1443L93.0635 7.59912H96.3313V20.7317C96.3313 21.3893 96.4854 21.8723 96.7937 22.1806C97.1225 22.4683 97.5335 22.6121 98.0268 22.6121C98.3556 22.6121 98.6536 22.5916 98.9208 22.5505C99.1879 22.4888 99.4243 22.4272 99.6298 22.3655V26.1265C99.301 26.2498 98.9516 26.3423 98.5817 26.4039C98.2117 26.4656 97.7802 26.4964 97.2869 26.4964ZM89.95 14.8744V11.1443H99.6298V14.8744H89.95Z" fill="#939393"/>
<path d="M83.0509 10.8052C84.0784 10.8052 84.9005 10.9799 85.5171 11.3292C86.1542 11.6786 86.6269 12.1513 86.9351 12.7473C87.264 13.3433 87.4797 14.0215 87.5825 14.7819C87.6853 15.5218 87.7366 16.2925 87.7366 17.094V26.219H83.6982V17.0632C83.6982 16.1383 83.5133 15.5218 83.1433 15.2135C82.794 14.9052 82.3418 14.7511 81.7869 14.7511C81.2731 14.7511 80.7491 14.8539 80.2147 15.0594C79.6804 15.2443 79.1769 15.5218 78.7042 15.8917C78.252 16.2411 77.8615 16.6419 77.5327 17.094L77.0086 14.9977H78.026V26.219H73.9875V11.1443H77.0086L77.841 14.0421L76.5462 13.9804C77.0806 13.3639 77.6869 12.8192 78.3651 12.3466C79.0638 11.8739 79.8037 11.5039 80.5846 11.2368C81.3656 10.949 82.1877 10.8052 83.0509 10.8052Z" fill="#939393"/>
<path d="M64.0267 26.5272C62.5265 26.5272 61.2112 26.2087 60.0808 25.5716C58.9505 24.9139 58.077 23.9994 57.4605 22.8279C56.8439 21.6565 56.5356 20.2795 56.5356 18.697C56.5356 17.1351 56.8439 15.7684 57.4605 14.597C58.077 13.405 58.9505 12.4801 60.0808 11.8225C61.2112 11.1443 62.5265 10.8052 64.0267 10.8052C65.5476 10.8052 66.8629 11.1443 67.9727 11.8225C69.103 12.5007 69.9765 13.4358 70.593 14.6278C71.2096 15.7992 71.5178 17.1454 71.5178 18.6662C71.5178 18.8923 71.5076 19.1183 71.487 19.3444C71.487 19.5499 71.4665 19.7246 71.4254 19.8685H59.8342V16.8474H68.3734L67.7569 18.2963C67.7569 17.0221 67.4486 15.9842 66.8321 15.1827C66.2361 14.3812 65.301 13.9804 64.0267 13.9804C62.917 13.9804 62.023 14.3298 61.3447 15.0286C60.6665 15.7068 60.3274 16.6213 60.3274 17.7722V19.4061C60.3274 20.6186 60.6665 21.5743 61.3447 22.273C62.0435 22.9512 62.9889 23.2903 64.1809 23.2903C65.229 23.2903 66.0511 23.0745 66.6471 22.643C67.2431 22.2114 67.7569 21.677 68.1885 21.0399L70.9938 22.643C70.3156 23.8966 69.3907 24.8625 68.2193 25.5408C67.0684 26.1984 65.6709 26.5272 64.0267 26.5272Z" fill="#939393"/>
<path d="M55.9177 11.144L50.3996 26.2187H46.5153L40.7197 11.144H44.9739L48.9199 22.6736H47.9642L51.756 11.144H55.9177Z" fill="#939393"/>
<path fill-rule="evenodd" clip-rule="evenodd" d="M11.7095 2.01807C11.1841 2.01807 10.7583 2.44395 10.7583 2.96931V12.0062C5.24204 12.0063 0.770264 16.4781 0.770264 21.9943C0.770264 27.5105 5.24206 31.9824 10.7583 31.9824H19.7951C20.3205 31.9824 20.7464 31.5565 20.7464 31.0311V21.9942C26.2626 21.9941 30.7344 17.5224 30.7344 12.0061C30.7344 6.48987 26.2626 2.01807 20.7463 2.01807H11.7095ZM20.7464 21.9942V12.9575C20.7464 12.4321 20.3205 12.0062 19.7951 12.0062H10.7583C10.7583 12.0062 10.7583 12.0062 10.7583 12.0062V21.0429C10.7583 21.5683 11.1841 21.9942 11.7095 21.9942H20.7463C20.7463 21.9942 20.7464 21.9942 20.7464 21.9942Z" fill="#939393"/>
<path d="M11.6026 2.01807C11.1364 2.01807 10.7585 2.39596 10.7585 2.86213L10.7585 12.0061H19.9025C20.3687 12.0061 20.7466 12.384 20.7466 12.8502L20.7466 21.9942C26.2628 21.9942 30.7347 17.5224 30.7347 12.0061C30.7347 6.48987 26.2629 2.01807 20.7466 2.01807H11.6026Z" fill="#939393"/>
</svg>
