<svg width="167" height="33" viewBox="0 0 167 33" fill="none" xmlns="http://www.w3.org/2000/svg">
<path d="M161.268 10.6108H165.196L160.015 24.8438C158.535 28.9429 156.115 30.7363 152.5 30.537V27.1211C154.521 27.1496 155.546 26.2956 156.229 24.3884L150.394 10.6108H154.407L158.108 20.1754L161.268 10.6108Z" fill="#939393"/>
<path d="M143.778 10.2124C146.795 10.2124 149.158 12.3189 149.158 16.1049V24.8439H145.486V16.5603C145.486 14.6246 144.319 13.6283 142.668 13.6283C140.874 13.6283 139.536 14.6816 139.536 17.1581V24.8439H135.864V10.6109H139.536V12.205C140.39 10.9241 141.871 10.2124 143.778 10.2124Z" fill="#939393"/>
<path d="M128.862 10.6109H132.534V24.8439H128.862V23.1644C127.838 24.4454 126.3 25.2424 124.222 25.2424C120.436 25.2424 117.305 21.9688 117.305 17.7274C117.305 13.486 120.436 10.2124 124.222 10.2124C126.3 10.2124 127.838 11.0094 128.862 12.2904V10.6109ZM124.906 21.7411C127.183 21.7411 128.862 20.1186 128.862 17.7274C128.862 15.3363 127.183 13.7137 124.906 13.7137C122.657 13.7137 120.977 15.3363 120.977 17.7274C120.977 20.1186 122.657 21.7411 124.906 21.7411Z" fill="#939393"/>
<path d="M108.51 10.2124C112.324 10.2124 115.456 13.486 115.456 17.7274C115.456 21.9688 112.324 25.2424 108.51 25.2424C106.432 25.2424 104.923 24.4738 103.898 23.1644V30.5371H100.226V10.6109H103.898V12.2904C104.923 10.981 106.432 10.2124 108.51 10.2124ZM107.827 21.7411C110.104 21.7411 111.783 20.1186 111.783 17.7274C111.783 15.3363 110.104 13.7137 107.827 13.7137C105.578 13.7137 103.898 15.3363 103.898 17.7274C103.898 20.1186 105.578 21.7411 107.827 21.7411Z" fill="#939393"/>
<path d="M91.7273 10.2124C94.9724 10.2124 97.1073 12.5181 97.1073 16.0764V24.8439H93.4352V16.3326C93.4352 14.6531 92.5812 13.6283 91.0441 13.6283C89.4215 13.6283 88.3968 14.71 88.3968 16.845V24.8439H84.7246V16.3326C84.7246 14.6531 83.8707 13.6283 82.3335 13.6283C80.7679 13.6283 79.6577 14.71 79.6577 16.845V24.8439H75.9856V10.6109H79.6577V12.1196C80.4548 10.9241 81.7927 10.2124 83.6145 10.2124C85.3794 10.2124 86.6888 10.9525 87.4858 12.2619C88.3683 10.981 89.7916 10.2124 91.7273 10.2124Z" fill="#939393"/>
<path d="M65.859 25.2424C61.6745 25.2424 58.344 21.9688 58.344 17.7274C58.344 13.486 61.6745 10.2124 65.859 10.2124C70.0435 10.2124 73.4025 13.486 73.4025 17.7274C73.4025 21.9688 70.0435 25.2424 65.859 25.2424ZM65.859 21.6557C68.0509 21.6557 69.7304 20.0332 69.7304 17.7274C69.7304 15.4217 68.0509 13.7991 65.859 13.7991C63.6956 13.7991 62.0161 15.4217 62.0161 17.7274C62.0161 20.0332 63.6956 21.6557 65.859 21.6557Z" fill="#939393"/>
<path d="M50.931 25.2424C46.6042 25.2424 43.416 21.9688 43.416 17.7274C43.416 13.486 46.6042 10.2124 50.931 10.2124C53.7207 10.2124 56.1403 11.6926 57.3074 13.8845L54.1477 15.7348C53.5784 14.5677 52.3543 13.8276 50.9026 13.8276C48.7107 13.8276 47.0881 15.4501 47.0881 17.7274C47.0881 19.9762 48.7107 21.5988 50.9026 21.5988C52.3828 21.5988 53.6068 20.8871 54.1761 19.72L57.3643 21.5419C56.1403 23.7622 53.7207 25.2424 50.931 25.2424Z" fill="#939393"/>
<path fill-rule="evenodd" clip-rule="evenodd" d="M12.0777 2.56787C10.8495 2.56787 9.85387 3.56352 9.85387 4.79171V11.7378H2.77975C1.55156 11.7378 0.555908 12.7335 0.555908 13.9617V30.3581C0.555908 31.5863 1.55156 32.582 2.77975 32.582H18.9814C20.2096 32.582 21.2053 31.5863 21.2053 30.3581V23.412H28.2794C29.5076 23.412 30.5032 22.4164 30.5032 21.1882V4.79172C30.5032 3.56352 29.5076 2.56787 28.2794 2.56787H12.0777ZM21.2053 23.412V13.9617C21.2053 12.7335 20.2096 11.7378 18.9814 11.7378H9.85387V21.1882C9.85387 22.4164 10.8495 23.412 12.0777 23.412H21.2053Z" fill="#939393"/>
</svg>
