<svg width="133" height="31" viewBox="0 0 133 31" fill="none" xmlns="http://www.w3.org/2000/svg">
<path d="M127.646 24.2588C128.006 23.7015 128.213 23.0902 128.267 22.425C128.32 21.7598 128.347 21.1036 128.347 20.4564C127.826 21.1216 127.188 21.589 126.433 21.8587C125.678 22.1284 124.86 22.2632 123.979 22.2632C122.954 22.2632 122.064 22.1104 121.309 21.8047C120.572 21.4991 119.987 21.0317 119.556 20.4024C119.124 19.8271 118.828 19.1529 118.666 18.3798C118.504 17.5888 118.423 16.7348 118.423 15.8179V7.83545H122.226V15.3595C122.226 15.8449 122.262 16.3213 122.334 16.7887C122.424 17.2382 122.603 17.6158 122.873 17.9214C123.304 18.5686 124.087 18.8922 125.219 18.8922C125.759 18.8922 126.262 18.7844 126.729 18.5686C127.197 18.3349 127.565 17.9753 127.835 17.4899C128.069 17.0764 128.213 16.6449 128.267 16.1955C128.32 15.728 128.347 15.2246 128.347 14.6853V7.83545H132.177V19.5125C132.177 20.1597 132.168 20.8249 132.15 21.5081C132.15 22.1733 132.096 22.8295 131.988 23.4767C131.898 24.124 131.727 24.7532 131.476 25.3645C131.224 25.9758 130.873 26.5421 130.424 27.0635C129.795 27.7826 128.968 28.3579 127.943 28.7894C126.936 29.2209 125.723 29.4276 124.302 29.4096C123.26 29.4276 122.226 29.2838 121.201 28.9782C120.176 28.6905 119.232 28.268 118.369 27.7107L119.583 24.4746C120.05 24.8161 120.671 25.1308 121.444 25.4184C122.235 25.7061 123.161 25.8499 124.221 25.8499C125.084 25.8499 125.786 25.7061 126.325 25.4184C126.882 25.1487 127.323 24.7622 127.646 24.2588Z" fill="#939393"/>
<path d="M110.107 18.8925C110.826 18.8925 111.392 18.7217 111.806 18.3801C112.237 18.0385 112.498 17.652 112.588 17.2205H116.579C116.453 18.1374 116.193 18.9105 115.797 19.5397C115.401 20.169 114.907 20.6903 114.314 21.1038C113.738 21.5173 113.082 21.814 112.345 21.9938C111.608 22.1736 110.844 22.2635 110.053 22.2635C108.866 22.2635 107.833 22.1016 106.952 21.778C106.089 21.4364 105.369 20.951 104.794 20.3218C104.219 19.6745 103.778 18.9015 103.473 18.0026C103.185 17.0856 103.041 16.0609 103.041 14.9282C103.041 13.8315 103.203 12.8247 103.527 11.9078C103.85 10.9909 104.309 10.2089 104.902 9.56164C105.513 8.91442 106.259 8.42001 107.14 8.07842C108.021 7.71885 109.028 7.53906 110.161 7.53906C110.988 7.53906 111.761 7.63794 112.48 7.83571C113.217 8.03347 113.864 8.33911 114.422 8.75261C114.997 9.16612 115.464 9.69648 115.824 10.3437C116.202 10.973 116.453 11.7281 116.579 12.609H112.588C112.498 12.1775 112.228 11.791 111.779 11.4494C111.347 11.1078 110.781 10.937 110.08 10.937C109.487 10.937 108.974 11.0449 108.543 11.2606C108.111 11.4764 107.77 11.773 107.518 12.1505C107.266 12.5281 107.086 12.9596 106.979 13.445C106.871 13.9304 106.817 14.4428 106.817 14.9822C106.817 15.5575 106.88 16.0878 107.006 16.5733C107.131 17.0407 107.32 17.4542 107.572 17.8138C107.824 18.1554 108.156 18.425 108.57 18.6228C109.001 18.8026 109.514 18.8925 110.107 18.8925Z" fill="#939393"/>
<path d="M91.4639 9.6425C92.6146 8.25816 94.0349 7.557 95.7248 7.53902C96.6417 7.52104 97.4508 7.67386 98.1519 7.99747C98.8531 8.3031 99.4194 8.7256 99.8509 9.26495C100.372 9.8942 100.732 10.6313 100.93 11.4763C101.127 12.3033 101.226 13.2292 101.226 14.254V22.0477H97.3968V14.5506C97.3968 14.0472 97.3429 13.5708 97.235 13.1213C97.1451 12.6539 96.9833 12.2584 96.7496 11.9348C96.5159 11.5932 96.2013 11.3415 95.8057 11.1797C95.4282 11.0179 94.9967 10.937 94.5113 10.937C93.9 10.9549 93.3786 11.0898 92.9472 11.3415C92.5337 11.5932 92.219 11.9168 92.0033 12.3123C91.7876 12.6899 91.6347 13.1213 91.5448 13.6068C91.4729 14.0742 91.437 14.5506 91.437 15.0361V22.0477H87.6345V7.83566H91.2752L91.4639 9.6425Z" fill="#939393"/>
<path d="M79.0818 19.1622C79.6212 19.1622 80.0796 19.0813 80.4572 18.9195C80.8527 18.7397 81.1763 18.452 81.428 18.0565H85.4192C85.2215 18.7936 84.9158 19.4318 84.5023 19.9712C84.1068 20.5106 83.6214 20.951 83.0461 21.2926C82.4887 21.6342 81.8685 21.8859 81.1853 22.0477C80.5021 22.1915 79.783 22.2635 79.0279 22.2635C76.7266 22.2635 74.9827 21.6162 73.7961 20.3218C72.6275 19.0273 72.0432 17.2115 72.0432 14.8743C72.0432 13.8136 72.196 12.8337 72.5017 11.9348C72.8253 11.0359 73.2747 10.2628 73.8501 9.61558C74.4254 8.95038 75.1355 8.43799 75.9805 8.07842C76.8435 7.71885 77.8233 7.53906 78.92 7.53906C80.1965 7.53906 81.3021 7.76379 82.237 8.21326C83.1719 8.66272 83.909 9.28298 84.4484 10.074C85.0057 10.8471 85.3743 11.755 85.5541 12.7978C85.7518 13.8405 85.7518 14.9552 85.5541 16.1418H75.8457C75.9176 16.9868 76.2142 17.7059 76.7356 18.2992C77.257 18.8745 78.039 19.1622 79.0818 19.1622ZM82.0213 13.5259C82.0213 13.0764 81.9404 12.6809 81.7786 12.3393C81.6168 11.9798 81.401 11.6921 81.1313 11.4764C80.8617 11.2426 80.5381 11.0718 80.1605 10.964C79.8009 10.8561 79.4234 10.8022 79.0279 10.8022C78.075 10.8201 77.3289 11.0808 76.7895 11.5842C76.2682 12.0696 75.9625 12.7169 75.8726 13.5259H82.0213Z" fill="#939393"/>
<path d="M66.3084 20.5912C65.769 21.2025 65.1218 21.634 64.3667 21.8857C63.6116 22.1374 62.7936 22.2632 61.9127 22.2632C61.0317 22.2632 60.1687 22.1284 59.3237 21.8587C58.4967 21.5711 57.7776 21.1126 57.1663 20.4834C56.4831 19.7642 56.0067 18.9372 55.737 18.0023C55.4674 17.0674 55.3325 16.1056 55.3325 15.1168C55.3325 12.7796 55.9797 10.9098 57.2742 9.50748C57.8315 8.89621 58.5507 8.41978 59.4316 8.07819C60.3305 7.7366 61.2924 7.57479 62.3172 7.59277C62.9824 7.55681 63.7015 7.67367 64.4746 7.94335C65.2477 8.21303 65.9129 8.66249 66.4702 9.29174L66.8747 7.83548H70.1648V21.1575C70.1648 21.7329 70.1288 22.2992 70.0569 22.8565C70.003 23.4318 69.9041 23.9802 69.7603 24.5016C69.6164 25.0409 69.4007 25.5533 69.113 26.0387C68.7894 26.632 68.3939 27.1354 67.9265 27.5489C67.477 27.9624 66.9736 28.304 66.4163 28.5737C65.8589 28.8613 65.2656 29.0681 64.6364 29.1939C64.0071 29.3198 63.3689 29.3827 62.7217 29.3827C61.8947 29.3827 61.1036 29.2838 60.3485 29.0861C59.5934 28.9063 58.9013 28.6006 58.272 28.1692C57.6607 27.7557 57.1483 27.2253 56.7348 26.5781C56.3393 25.9308 56.0786 25.1578 55.9528 24.2588H59.9979C60.0699 24.6903 60.3575 25.0769 60.8609 25.4185C61.3643 25.76 61.9756 25.9308 62.6947 25.9308C63.4678 25.9308 64.097 25.778 64.5825 25.4724C65.0859 25.1668 65.4634 24.7622 65.7151 24.2588C65.9668 23.7554 66.1286 23.1801 66.2005 22.5329C66.2724 21.8857 66.3084 21.2385 66.3084 20.5912ZM62.7756 18.8923C63.3689 18.8923 63.8903 18.7844 64.3397 18.5686C64.8072 18.3529 65.1847 18.0652 65.4724 17.7057C65.76 17.3281 65.9758 16.8966 66.1196 16.4112C66.2634 15.9078 66.3354 15.3775 66.3354 14.8201C66.3354 13.7055 66.0207 12.7886 65.3915 12.0694C64.7802 11.3323 63.8993 10.9548 62.7486 10.9368C62.1554 10.9368 61.625 11.0446 61.1576 11.2604C60.7081 11.4761 60.3305 11.7638 60.0249 12.1234C59.7373 12.4829 59.5215 12.9054 59.3777 13.3908C59.2339 13.8763 59.1619 14.3976 59.1619 14.955C59.1619 15.5483 59.2339 16.0876 59.3777 16.573C59.5395 17.0405 59.7732 17.454 60.0788 17.8135C60.3845 18.1551 60.762 18.4248 61.2115 18.6226C61.661 18.8024 62.1823 18.8923 62.7756 18.8923Z" fill="#939393"/>
<path d="M49.9055 20.2948C49.3662 21.0139 48.7099 21.5263 47.9369 21.832C47.1638 22.1376 46.2649 22.2814 45.2401 22.2635C43.9277 22.2275 42.831 21.8589 41.95 21.1578C41.4826 20.7622 41.114 20.2948 40.8443 19.7555C40.5926 19.1981 40.4668 18.5419 40.4668 17.7868C40.4848 17.0137 40.6556 16.3305 40.9792 15.7373C41.3208 15.126 41.8332 14.6226 42.5163 14.2271C43.0917 13.9214 43.7389 13.7057 44.458 13.5798C45.1951 13.454 45.9952 13.3911 46.8582 13.3911H49.7707C49.8246 12.5101 49.6179 11.8539 49.1504 11.4224C48.7009 10.973 48.0627 10.7392 47.2357 10.7213C46.966 10.7213 46.6874 10.7392 46.3997 10.7752C46.112 10.8112 45.8424 10.8831 45.5907 10.9909C45.3569 11.0988 45.1502 11.2516 44.9704 11.4494C44.8086 11.6292 44.7007 11.8539 44.6468 12.1236H40.7365C40.8264 11.2606 41.0601 10.5415 41.4376 9.96616C41.8332 9.37287 42.3276 8.89644 42.9209 8.53687C43.5142 8.1773 44.1704 7.9256 44.8895 7.78177C45.6266 7.61997 46.3817 7.53906 47.1548 7.53906C47.5863 7.53906 48.0268 7.56603 48.4762 7.61997C48.9257 7.65592 49.3662 7.74582 49.7976 7.88964C50.2291 8.01549 50.6336 8.19528 51.0112 8.429C51.4067 8.64474 51.7753 8.9324 52.1169 9.29197C52.7281 9.99313 53.1057 10.8022 53.2495 11.7191C53.4113 12.618 53.4832 13.4989 53.4653 14.3619V22.0477H49.9864L49.9055 20.2948ZM49.7707 15.7642H46.993C46.7233 15.7642 46.4177 15.7912 46.0761 15.8451C45.7345 15.8991 45.4379 15.9979 45.1862 16.1418C44.9345 16.2856 44.7187 16.4744 44.5389 16.7081C44.3771 16.9418 44.2962 17.2295 44.2962 17.5711C44.2962 17.8587 44.3502 18.1104 44.458 18.3262C44.5839 18.5419 44.7367 18.7217 44.9165 18.8655C45.1142 19.0093 45.348 19.1262 45.6176 19.2161C45.8873 19.288 46.157 19.324 46.4267 19.324C46.948 19.3419 47.4335 19.2521 47.8829 19.0543C48.3504 18.8565 48.7549 18.5779 49.0965 18.2183C49.3122 17.9306 49.474 17.607 49.5819 17.2475C49.7077 16.8699 49.7707 16.3755 49.7707 15.7642Z" fill="#939393"/>
<path fill-rule="evenodd" clip-rule="evenodd" d="M30.1404 16.0388C29.988 18.7012 29.1272 21.2804 27.6399 23.5063C25.9937 25.9701 23.6538 27.8904 20.9162 29.0243C18.1785 30.1583 15.1662 30.455 12.2599 29.8769C9.35367 29.2988 6.68412 27.8719 4.58884 25.7766C2.49356 23.6814 1.06665 21.0118 0.488567 18.1056C-0.0895201 15.1993 0.207175 12.1869 1.34113 9.44931C2.47509 6.71169 4.39538 4.37181 6.85917 2.72556C9.08508 1.23825 11.6643 0.377454 14.3267 0.225098V7.74074C13.1481 7.87632 12.0142 8.29049 11.021 8.95413C9.78908 9.77726 8.82893 10.9472 8.26195 12.316C7.69497 13.6848 7.54663 15.191 7.83567 16.6441C8.12471 18.0973 8.83816 19.432 9.88581 20.4797C10.9334 21.5273 12.2682 22.2408 13.7213 22.5298C15.1745 22.8189 16.6807 22.6705 18.0495 22.1035C19.4183 21.5365 20.5882 20.5764 21.4113 19.3445C22.075 18.3513 22.4892 17.2174 22.6247 16.0388H30.1404Z" fill="#939393"/>
<path fill-rule="evenodd" clip-rule="evenodd" d="M22.6698 0.200684H16.5413V7.69171H22.6698L22.6698 13.8205L30.1608 13.8205L30.1608 7.69171H30.1614V0.200684H28.7905H22.6698Z" fill="#939393"/>
</svg>
