<svg width="158" height="34" viewBox="0 0 158 34" fill="none" xmlns="http://www.w3.org/2000/svg">
<path d="M156.041 16.4525L152.307 16.6823C152.243 16.3631 152.106 16.0758 151.895 15.8204C151.684 15.5587 151.406 15.3512 151.062 15.198C150.723 15.0383 150.318 14.9585 149.845 14.9585C149.213 14.9585 148.68 15.0926 148.246 15.3608C147.812 15.6225 147.595 15.9737 147.595 16.4142C147.595 16.7653 147.735 17.0622 148.016 17.3048C148.297 17.5474 148.779 17.7421 149.462 17.889L152.125 18.4253C153.555 18.719 154.621 19.1914 155.323 19.8426C156.026 20.4938 156.377 21.3493 156.377 22.4091C156.377 23.3732 156.093 24.2191 155.524 24.947C154.963 25.6748 154.19 26.243 153.207 26.6516C152.23 27.0538 151.103 27.2549 149.826 27.2549C147.879 27.2549 146.328 26.8495 145.172 26.0387C144.023 25.2215 143.349 24.1106 143.151 22.706L147.164 22.4953C147.285 23.0891 147.579 23.5424 148.045 23.8552C148.511 24.1617 149.108 24.3149 149.836 24.3149C150.551 24.3149 151.126 24.1776 151.56 23.9031C152 23.6222 152.224 23.2615 152.23 22.8209C152.224 22.4506 152.067 22.1474 151.761 21.9112C151.454 21.6686 150.982 21.4834 150.343 21.3557L147.796 20.8482C146.36 20.5609 145.29 20.0629 144.588 19.3542C143.892 18.6455 143.544 17.7421 143.544 16.644C143.544 15.6991 143.799 14.8851 144.31 14.202C144.827 13.5189 145.552 12.9921 146.484 12.6218C147.423 12.2516 148.521 12.0664 149.778 12.0664C151.636 12.0664 153.098 12.459 154.164 13.2443C155.237 14.0296 155.863 15.099 156.041 16.4525Z" fill="#939393"/>
<path d="M140.899 16.4525L137.164 16.6823C137.1 16.3631 136.963 16.0758 136.752 15.8204C136.541 15.5587 136.264 15.3512 135.919 15.198C135.58 15.0383 135.175 14.9585 134.703 14.9585C134.071 14.9585 133.537 15.0926 133.103 15.3608C132.669 15.6225 132.452 15.9737 132.452 16.4142C132.452 16.7653 132.593 17.0622 132.873 17.3048C133.154 17.5474 133.636 17.7421 134.32 17.889L136.982 18.4253C138.412 18.719 139.478 19.1914 140.18 19.8426C140.883 20.4938 141.234 21.3493 141.234 22.4091C141.234 23.3732 140.95 24.2191 140.382 24.947C139.82 25.6748 139.047 26.243 138.064 26.6516C137.087 27.0538 135.96 27.2549 134.683 27.2549C132.736 27.2549 131.185 26.8495 130.029 26.0387C128.88 25.2215 128.206 24.1106 128.009 22.706L132.021 22.4953C132.142 23.0891 132.436 23.5424 132.902 23.8552C133.368 24.1617 133.965 24.3149 134.693 24.3149C135.408 24.3149 135.983 24.1776 136.417 23.9031C136.857 23.6222 137.081 23.2615 137.087 22.8209C137.081 22.4506 136.924 22.1474 136.618 21.9112C136.311 21.6686 135.839 21.4834 135.201 21.3557L132.653 20.8482C131.217 20.5609 130.147 20.0629 129.445 19.3542C128.749 18.6455 128.401 17.7421 128.401 16.644C128.401 15.6991 128.657 14.8851 129.167 14.202C129.684 13.5189 130.409 12.9921 131.341 12.6218C132.28 12.2516 133.378 12.0664 134.636 12.0664C136.493 12.0664 137.955 12.459 139.022 13.2443C140.094 14.0296 140.72 15.099 140.899 16.4525Z" fill="#939393"/>
<path d="M119.246 27.2549C117.733 27.2549 116.431 26.9485 115.339 26.3356C114.254 25.7163 113.417 24.8416 112.83 23.7116C112.242 22.5751 111.949 21.2312 111.949 19.6798C111.949 18.1667 112.242 16.8388 112.83 15.6959C113.417 14.5531 114.244 13.6625 115.31 13.0241C116.383 12.3856 117.64 12.0664 119.083 12.0664C120.054 12.0664 120.957 12.2228 121.793 12.5357C122.636 12.8421 123.37 13.305 123.996 13.9243C124.628 14.5436 125.12 15.3225 125.471 16.261C125.822 17.1931 125.998 18.2848 125.998 19.5362V20.6566H113.577V18.1284H122.157C122.157 17.541 122.03 17.0207 121.774 16.5674C121.519 16.1141 121.165 15.7598 120.711 15.5044C120.264 15.2426 119.744 15.1118 119.15 15.1118C118.531 15.1118 117.982 15.2554 117.503 15.5427C117.031 15.8236 116.66 16.2035 116.392 16.6823C116.124 17.1548 115.987 17.6815 115.98 18.2625V20.6662C115.98 21.394 116.115 22.0229 116.383 22.5528C116.657 23.0827 117.043 23.4913 117.541 23.7786C118.039 24.0659 118.63 24.2096 119.313 24.2096C119.766 24.2096 120.181 24.1457 120.558 24.018C120.935 23.8903 121.257 23.6988 121.525 23.4434C121.793 23.188 121.998 22.8752 122.138 22.5049L125.911 22.7539C125.72 23.6605 125.327 24.4522 124.734 25.1289C124.146 25.7993 123.386 26.3228 122.454 26.6995C121.529 27.0698 120.459 27.2549 119.246 27.2549Z" fill="#939393"/>
<path d="M99.846 18.4636V26.9676H95.7664V12.2579H99.6545V14.8532H99.8268C100.152 13.9977 100.698 13.3209 101.464 12.823C102.231 12.3186 103.16 12.0664 104.251 12.0664C105.273 12.0664 106.163 12.2899 106.923 12.7368C107.683 13.1837 108.273 13.8221 108.695 14.6521C109.116 15.4757 109.327 16.4589 109.327 17.6017V26.9676H105.247V18.3295C105.254 17.4293 105.024 16.727 104.558 16.2227C104.092 15.7119 103.45 15.4565 102.633 15.4565C102.084 15.4565 101.599 15.5746 101.177 15.8109C100.762 16.0471 100.437 16.3918 100.2 16.8451C99.9705 17.292 99.8524 17.8315 99.846 18.4636Z" fill="#939393"/>
<path d="M88.4188 26.9677V12.2581H92.4985V26.9677H88.4188ZM90.4682 10.3619C89.8617 10.3619 89.3414 10.1608 88.9073 9.75857C88.4795 9.34997 88.2656 8.86156 88.2656 8.29335C88.2656 7.73152 88.4795 7.2495 88.9073 6.84728C89.3414 6.43868 89.8617 6.23438 90.4682 6.23438C91.0748 6.23438 91.5919 6.43868 92.0197 6.84728C92.4538 7.2495 92.6709 7.73152 92.6709 8.29335C92.6709 8.86156 92.4538 9.34997 92.0197 9.75857C91.5919 10.1608 91.0748 10.3619 90.4682 10.3619Z" fill="#939393"/>
<path d="M85.5146 16.4525L81.7798 16.6823C81.7159 16.3631 81.5786 16.0758 81.368 15.8204C81.1573 15.5587 80.8796 15.3512 80.5348 15.198C80.1964 15.0383 79.791 14.9585 79.3186 14.9585C78.6865 14.9585 78.1534 15.0926 77.7193 15.3608C77.2851 15.6225 77.0681 15.9737 77.0681 16.4142C77.0681 16.7653 77.2085 17.0622 77.4894 17.3048C77.7703 17.5474 78.2524 17.7421 78.9355 17.889L81.5978 18.4253C83.0279 18.719 84.0941 19.1914 84.7964 19.8426C85.4987 20.4938 85.8498 21.3493 85.8498 22.4091C85.8498 23.3732 85.5657 24.2191 84.9975 24.947C84.4357 25.6748 83.6632 26.243 82.68 26.6516C81.7031 27.0538 80.5763 27.2549 79.2994 27.2549C77.3522 27.2549 75.8008 26.8495 74.6452 26.0387C73.496 25.2215 72.8224 24.1106 72.6245 22.706L76.6371 22.4953C76.7584 23.0891 77.0521 23.5424 77.5182 23.8552C77.9842 24.1617 78.5812 24.3149 79.309 24.3149C80.024 24.3149 80.5986 24.1776 81.0328 23.9031C81.4733 23.6222 81.6968 23.2615 81.7031 22.8209C81.6968 22.4506 81.5403 22.1474 81.2339 21.9112C80.9274 21.6686 80.455 21.4834 79.8165 21.3557L77.2692 20.8482C75.8327 20.5609 74.7633 20.0629 74.061 19.3542C73.3651 18.6455 73.0172 17.7421 73.0172 16.644C73.0172 15.6991 73.2725 14.8851 73.7833 14.202C74.3004 13.5189 75.0251 12.9921 75.9572 12.6218C76.8957 12.2516 77.9938 12.0664 79.2515 12.0664C81.1094 12.0664 82.5714 12.459 83.6376 13.2443C84.7102 14.0296 85.3359 15.099 85.5146 16.4525Z" fill="#939393"/>
<path d="M65.933 20.7044V12.2578H70.0126V26.9675H66.0958V24.2956H65.9425C65.6106 25.1575 65.0583 25.8502 64.2858 26.3737C63.5197 26.8973 62.5843 27.159 61.4798 27.159C60.4966 27.159 59.6316 26.9356 58.8846 26.4887C58.1376 26.0418 57.5534 25.4065 57.1321 24.5829C56.7171 23.7593 56.5064 22.7729 56.5 21.6237V12.2578H60.5796V20.8959C60.586 21.7642 60.8191 22.4505 61.2787 22.9549C61.7384 23.4593 62.3545 23.7114 63.127 23.7114C63.6186 23.7114 64.0783 23.5997 64.5061 23.3763C64.9338 23.1464 65.2786 22.808 65.5403 22.3611C65.8085 21.9142 65.9393 21.362 65.933 20.7044Z" fill="#939393"/>
<path d="M39.4321 26.9674V7.35449H43.5118V14.7285H43.6363C43.815 14.3327 44.0736 13.9304 44.412 13.5218C44.7567 13.1068 45.2036 12.7621 45.7527 12.4876C46.3081 12.2066 46.9977 12.0662 47.8212 12.0662C48.8938 12.0662 49.8834 12.3471 50.79 12.9089C51.6966 13.4644 52.4212 14.3039 52.9639 15.4276C53.5066 16.5449 53.7779 17.9462 53.7779 19.6317C53.7779 21.2725 53.5129 22.6579 52.983 23.788C52.4595 24.9116 51.7445 25.7639 50.8379 26.3449C49.9377 26.9195 48.9289 27.2068 47.8117 27.2068C47.02 27.2068 46.3464 27.0759 45.791 26.8142C45.2419 26.5524 44.7918 26.2236 44.4407 25.8278C44.0896 25.4256 43.8214 25.0202 43.6363 24.6116H43.4543V26.9674H39.4321ZM43.4256 19.6126C43.4256 20.4872 43.5469 21.2502 43.7895 21.9014C44.0321 22.5526 44.3832 23.0601 44.8429 23.4241C45.3026 23.7816 45.8612 23.9603 46.5188 23.9603C47.1828 23.9603 47.7446 23.7784 48.2043 23.4145C48.664 23.0442 49.0119 22.5334 49.2482 21.8822C49.4908 21.2246 49.6121 20.4681 49.6121 19.6126C49.6121 18.7634 49.494 18.0165 49.2577 17.3716C49.0215 16.7268 48.6736 16.2224 48.2139 15.8585C47.7542 15.4946 47.1892 15.3127 46.5188 15.3127C45.8548 15.3127 45.293 15.4882 44.8333 15.8394C44.38 16.1905 44.0321 16.6885 43.7895 17.3333C43.5469 17.9782 43.4256 18.7379 43.4256 19.6126Z" fill="#939393"/>
<path fill-rule="evenodd" clip-rule="evenodd" d="M16.1362 12.4417L20.5493 16.8548L16.3474 21.0567L11.9343 16.6436L16.1362 12.4417ZM11.6116 7.91712L8.84478 5.15031C8.68695 4.99249 8.68695 4.73661 8.84478 4.57879L12.7979 0.625691C12.9557 0.467869 13.2116 0.467869 13.3694 0.625691L26.8837 14.14C28.3831 15.6393 28.3831 18.0702 26.8837 19.5696L20.872 25.5813L23.6388 28.3481C23.7966 28.506 23.7966 28.7618 23.6388 28.9197L19.6857 32.8728C19.5279 33.0306 19.272 33.0306 19.1142 32.8728L5.59984 19.3584C4.10051 17.8591 4.10051 15.4282 5.59984 13.9289L11.6116 7.91712Z" fill="#939393"/>
</svg>
