<svg width="203" height="32" viewBox="0 0 203 32" fill="none" xmlns="http://www.w3.org/2000/svg">
<path d="M190.904 11.7992C192.055 10.4149 193.475 9.71373 195.165 9.69576C196.082 9.67778 196.891 9.83059 197.592 10.1542C198.293 10.4598 198.859 10.8823 199.291 11.4217C199.812 12.0509 200.172 12.7881 200.37 13.633C200.567 14.4601 200.666 15.386 200.666 16.4107V24.2044H196.837V16.7074C196.837 16.204 196.783 15.7275 196.675 15.2781C196.585 14.8106 196.423 14.4151 196.19 14.0915C195.956 13.7499 195.641 13.4982 195.246 13.3364C194.868 13.1746 194.437 13.0937 193.951 13.0937C193.34 13.1117 192.819 13.2465 192.387 13.4982C191.974 13.7499 191.659 14.0735 191.443 14.469C191.227 14.8466 191.075 15.2781 190.985 15.7635C190.913 16.2309 190.877 16.7074 190.877 17.1928V24.2044H187.074V9.9924H190.715L190.904 11.7992Z" fill="#939393"/>
<path d="M177.432 24.4202C175.131 24.4202 173.36 23.773 172.12 22.4785C170.879 21.1661 170.259 19.3503 170.259 17.031C170.259 15.9164 170.421 14.9096 170.744 14.0106C171.086 13.0937 171.553 12.3117 172.147 11.6644C172.758 11.0172 173.504 10.5318 174.385 10.2082C175.284 9.8666 176.3 9.6958 177.432 9.6958C178.547 9.6958 179.545 9.8666 180.426 10.2082C181.325 10.5318 182.08 11.0172 182.691 11.6644C183.32 12.3117 183.797 13.0937 184.12 14.0106C184.462 14.9096 184.633 15.9164 184.633 17.031C184.633 19.3682 184.004 21.1841 182.745 22.4785C181.505 23.773 179.734 24.4202 177.432 24.4202ZM177.432 13.0937C176.264 13.0937 175.401 13.4713 174.844 14.2264C174.286 14.9815 174.008 15.9254 174.008 17.058C174.008 18.2086 174.286 19.1615 174.844 19.9166C175.401 20.6717 176.264 21.0492 177.432 21.0492C178.601 21.0492 179.455 20.6717 179.994 19.9166C180.534 19.1615 180.803 18.2086 180.803 17.058C180.803 15.9254 180.534 14.9815 179.994 14.2264C179.455 13.4713 178.601 13.0937 177.432 13.0937Z" fill="#939393"/>
<path d="M165.686 3.38574C166.387 3.38574 166.954 3.59249 167.385 4.006C167.817 4.41951 168.032 4.96785 168.032 5.65103C168.032 6.37017 167.817 6.9365 167.385 7.35C166.954 7.74553 166.387 7.94329 165.686 7.94329C165.003 7.94329 164.437 7.74553 163.987 7.35C163.556 6.9365 163.34 6.37017 163.34 5.65103C163.34 4.96785 163.556 4.41951 163.987 4.006C164.437 3.59249 165.003 3.38574 165.686 3.38574ZM167.601 24.2048H163.799V9.99284H167.601V24.2048Z" fill="#939393"/>
<path d="M158.141 13.3097V19.0538C158.141 20.2763 158.762 20.8876 160.002 20.8876H161.404V24.2046H159.624C157.737 24.2765 156.379 23.917 155.552 23.1259C154.743 22.3349 154.339 21.1393 154.339 19.5392V13.3097H152.181V9.99262H154.339V6.13623H158.141V9.99262H161.539V13.3097H158.141Z" fill="#939393"/>
<path d="M146.7 22.4515C146.161 23.1707 145.505 23.6831 144.732 23.9887C143.959 24.2943 143.06 24.4382 142.035 24.4202C140.723 24.3842 139.626 24.0157 138.745 23.3145C138.278 22.919 137.909 22.4515 137.639 21.9122C137.388 21.3549 137.262 20.6986 137.262 19.9435C137.28 19.1705 137.45 18.4873 137.774 17.894C138.116 17.2827 138.628 16.7793 139.311 16.3838C139.887 16.0782 140.534 15.8624 141.253 15.7366C141.99 15.6107 142.79 15.5478 143.653 15.5478H146.566C146.62 14.6669 146.413 14.0106 145.945 13.5792C145.496 13.1297 144.858 12.896 144.031 12.878C143.761 12.878 143.482 12.896 143.195 12.9319C142.907 12.9679 142.637 13.0398 142.386 13.1477C142.152 13.2555 141.945 13.4084 141.765 13.6061C141.604 13.7859 141.496 14.0106 141.442 14.2803H137.531C137.621 13.4174 137.855 12.6982 138.233 12.1229C138.628 11.5296 139.122 11.0532 139.716 10.6936C140.309 10.334 140.965 10.0823 141.684 9.93851C142.422 9.7767 143.177 9.6958 143.95 9.6958C144.381 9.6958 144.822 9.72277 145.271 9.7767C145.721 9.81266 146.161 9.90255 146.593 10.0464C147.024 10.1722 147.429 10.352 147.806 10.5857C148.202 10.8015 148.57 11.0891 148.912 11.4487C149.523 12.1499 149.901 12.9589 150.044 13.8758C150.206 14.7747 150.278 15.6557 150.26 16.5186V24.2045H146.781L146.7 22.4515ZM146.566 17.921H143.788C143.518 17.921 143.213 17.9479 142.871 18.0019C142.529 18.0558 142.233 18.1547 141.981 18.2985C141.729 18.4423 141.514 18.6311 141.334 18.8648C141.172 19.0986 141.091 19.3862 141.091 19.7278C141.091 20.0155 141.145 20.2672 141.253 20.4829C141.379 20.6986 141.532 20.8784 141.711 21.0223C141.909 21.1661 142.143 21.2829 142.413 21.3728C142.682 21.4448 142.952 21.4807 143.222 21.4807C143.743 21.4987 144.228 21.4088 144.678 21.211C145.145 21.0133 145.55 20.7346 145.891 20.375C146.107 20.0874 146.269 19.7638 146.377 19.4042C146.503 19.0266 146.566 18.5322 146.566 17.921Z" fill="#939393"/>
<path d="M135.326 12.7434L128.423 20.8876H135.326V24.2047H123.46V21.427L130.31 13.2827H123.46V9.99268H135.326V12.7434Z" fill="#939393"/>
<path d="M118.888 3.38574C119.589 3.38574 120.155 3.59249 120.587 4.006C121.018 4.41951 121.234 4.96785 121.234 5.65103C121.234 6.37017 121.018 6.9365 120.587 7.35C120.155 7.74553 119.589 7.94329 118.888 7.94329C118.205 7.94329 117.638 7.74553 117.189 7.35C116.757 6.9365 116.542 6.37017 116.542 5.65103C116.542 4.96785 116.757 4.41951 117.189 4.006C117.638 3.59249 118.205 3.38574 118.888 3.38574ZM120.803 24.2048H117V9.99284H120.803V24.2048Z" fill="#939393"/>
<path d="M104.101 11.7992C105.252 10.4149 106.672 9.71373 108.362 9.69576C109.279 9.67778 110.088 9.83059 110.789 10.1542C111.491 10.4598 112.057 10.8823 112.488 11.4217C113.01 12.0509 113.369 12.7881 113.567 13.633C113.765 14.4601 113.864 15.386 113.864 16.4107V24.2044H110.034V16.7074C110.034 16.204 109.98 15.7275 109.872 15.2781C109.783 14.8106 109.621 14.4151 109.387 14.0915C109.153 13.7499 108.839 13.4982 108.443 13.3364C108.066 13.1746 107.634 13.0937 107.149 13.0937C106.537 13.1117 106.016 13.2465 105.585 13.4982C105.171 13.7499 104.856 14.0735 104.641 14.469C104.425 14.8466 104.272 15.2781 104.182 15.7635C104.11 16.2309 104.074 16.7074 104.074 17.1928V24.2044H100.272V9.9924H103.913L104.101 11.7992Z" fill="#939393"/>
<path d="M93.7392 22.4515C93.1999 23.1707 92.5437 23.6831 91.7706 23.9887C90.9975 24.2943 90.0986 24.4382 89.0738 24.4202C87.7614 24.3842 86.6647 24.0157 85.7838 23.3145C85.3163 22.919 84.9478 22.4515 84.6781 21.9122C84.4264 21.3549 84.3005 20.6986 84.3005 19.9435C84.3185 19.1705 84.4893 18.4873 84.8129 17.894C85.1545 17.2827 85.6669 16.7793 86.3501 16.3838C86.9254 16.0782 87.5726 15.8624 88.2918 15.7366C89.0289 15.6107 89.8289 15.5478 90.6919 15.5478H93.6044C93.6583 14.6669 93.4516 14.0106 92.9842 13.5792C92.5347 13.1297 91.8965 12.896 91.0694 12.878C90.7998 12.878 90.5211 12.896 90.2334 12.9319C89.9458 12.9679 89.6761 13.0398 89.4244 13.1477C89.1907 13.2555 88.9839 13.4084 88.8042 13.6061C88.6423 13.7859 88.5345 14.0106 88.4805 14.2803H84.5702C84.6601 13.4174 84.8938 12.6982 85.2714 12.1229C85.6669 11.5296 86.1613 11.0532 86.7546 10.6936C87.3479 10.334 88.0041 10.0823 88.7232 9.93851C89.4604 9.7767 90.2155 9.6958 90.9885 9.6958C91.42 9.6958 91.8605 9.72277 92.31 9.7767C92.7594 9.81266 93.1999 9.90255 93.6314 10.0464C94.0629 10.1722 94.4674 10.352 94.8449 10.5857C95.2405 10.8015 95.609 11.0891 95.9506 11.4487C96.5619 12.1499 96.9394 12.9589 97.0833 13.8758C97.2451 14.7747 97.317 15.6557 97.299 16.5186V24.2045H93.8202L93.7392 22.4515ZM93.6044 17.921H90.8267C90.5571 17.921 90.2514 17.9479 89.9098 18.0019C89.5682 18.0558 89.2716 18.1547 89.0199 18.2985C88.7682 18.4423 88.5524 18.6311 88.3727 18.8648C88.2109 19.0986 88.13 19.3862 88.13 19.7278C88.13 20.0155 88.1839 20.2672 88.2918 20.4829C88.4176 20.6986 88.5704 20.8784 88.7502 21.0223C88.948 21.1661 89.1817 21.2829 89.4514 21.3728C89.7211 21.4448 89.9907 21.4807 90.2604 21.4807C90.7818 21.4987 91.2672 21.4088 91.7167 21.211C92.1841 21.0133 92.5886 20.7346 92.9302 20.375C93.146 20.0874 93.3078 19.7638 93.4156 19.4042C93.5415 19.0266 93.6044 18.5322 93.6044 17.921Z" fill="#939393"/>
<path d="M77.9727 22.7485C77.4333 23.3597 76.7861 23.7912 76.031 24.0429C75.2759 24.2946 74.4579 24.4205 73.577 24.4205C72.696 24.4205 71.833 24.2856 70.9881 24.0159C70.161 23.7283 69.4419 23.2698 68.8306 22.6406C68.1475 21.9214 67.671 21.0944 67.4013 20.1595C67.1317 19.2247 66.9968 18.2628 66.9968 17.274C66.9968 14.9368 67.6441 13.067 68.9385 11.6647C69.4958 11.0534 70.215 10.577 71.0959 10.2354C71.9948 9.89383 72.9567 9.73202 73.9815 9.75C74.6467 9.71404 75.3658 9.8309 76.1389 10.1006C76.912 10.3703 77.5772 10.8197 78.1345 11.449L78.539 9.99271H81.8291V23.3148C81.8291 23.8901 81.7931 24.4564 81.7212 25.0137C81.6673 25.5891 81.5684 26.1374 81.4246 26.6588C81.2807 27.1981 81.065 27.7105 80.7773 28.1959C80.4537 28.7892 80.0582 29.2926 79.5908 29.7061C79.1413 30.1196 78.6379 30.4612 78.0806 30.7309C77.5232 31.0186 76.9299 31.2253 76.3007 31.3512C75.6715 31.477 75.0332 31.5399 74.386 31.5399C73.559 31.5399 72.7679 31.4411 72.0128 31.2433C71.2577 31.0635 70.5656 30.7579 69.9363 30.3264C69.325 29.9129 68.8127 29.3825 68.3992 28.7353C68.0036 28.0881 67.7429 27.315 67.6171 26.4161H71.6622C71.7342 26.8476 72.0218 27.2341 72.5252 27.5757C73.0286 27.9173 73.6399 28.0881 74.359 28.0881C75.1321 28.0881 75.7613 27.9352 76.2468 27.6296C76.7502 27.324 77.1277 26.9195 77.3794 26.4161C77.6311 25.9127 77.7929 25.3374 77.8648 24.6901C77.9367 24.0429 77.9727 23.3957 77.9727 22.7485ZM74.4399 21.0495C75.0332 21.0495 75.5546 20.9416 76.0041 20.7259C76.4715 20.5101 76.849 20.2225 77.1367 19.8629C77.4244 19.4854 77.6401 19.0539 77.7839 18.5685C77.9278 18.0651 77.9997 17.5347 77.9997 16.9774C77.9997 15.8627 77.685 14.9458 77.0558 14.2266C76.4445 13.4895 75.5636 13.112 74.413 13.094C73.8197 13.094 73.2893 13.2019 72.8219 13.4176C72.3724 13.6334 71.9949 13.921 71.6892 14.2806C71.4016 14.6401 71.1858 15.0626 71.042 15.5481C70.8982 16.0335 70.8262 16.5549 70.8262 17.1122C70.8262 17.7055 70.8982 18.2448 71.042 18.7303C71.2038 19.1977 71.4375 19.6112 71.7432 19.9708C72.0488 20.3124 72.4263 20.582 72.8758 20.7798C73.3253 20.9596 73.8466 21.0495 74.4399 21.0495Z" fill="#939393"/>
<path d="M60.4344 11.7727C61.0098 11.0895 61.621 10.5771 62.2682 10.2355C62.9335 9.89394 63.7245 9.72314 64.6414 9.72314C64.8751 9.72314 65.0999 9.73213 65.3156 9.75011C65.5313 9.76809 65.7291 9.79506 65.9089 9.83101V13.3368C65.4954 13.3368 65.0729 13.3458 64.6414 13.3638C64.2279 13.3638 63.8324 13.3997 63.4548 13.4717C63.0773 13.5436 62.7087 13.6604 62.3491 13.8222C62.0076 13.9661 61.7019 14.1818 61.4322 14.4695C61.0187 14.9369 60.7581 15.4403 60.6502 15.9797C60.5603 16.519 60.5153 17.1303 60.5153 17.8135V24.2048H56.7129V9.99282H60.2187L60.4344 11.7727Z" fill="#939393"/>
<path d="M47.0706 24.4202C44.7694 24.4202 42.9985 23.773 41.758 22.4785C40.5175 21.1661 39.8972 19.3503 39.8972 17.031C39.8972 15.9164 40.059 14.9096 40.3826 14.0106C40.7242 13.0937 41.1917 12.3117 41.785 11.6644C42.3962 11.0172 43.1423 10.5318 44.0233 10.2082C44.9222 9.8666 45.938 9.6958 47.0706 9.6958C48.1853 9.6958 49.1831 9.8666 50.0641 10.2082C50.963 10.5318 51.7181 11.0172 52.3293 11.6644C52.9586 12.3117 53.435 13.0937 53.7586 14.0106C54.1002 14.9096 54.271 15.9164 54.271 17.031C54.271 19.3682 53.6418 21.1841 52.3833 22.4785C51.1428 23.773 49.3719 24.4202 47.0706 24.4202ZM47.0706 13.0937C45.902 13.0937 45.0391 13.4713 44.4817 14.2264C43.9244 14.9815 43.6457 15.9254 43.6457 17.058C43.6457 18.2086 43.9244 19.1615 44.4817 19.9166C45.0391 20.6717 45.902 21.0492 47.0706 21.0492C48.2392 21.0492 49.0932 20.6717 49.6326 19.9166C50.1719 19.1615 50.4416 18.2086 50.4416 17.058C50.4416 15.9254 50.1719 14.9815 49.6326 14.2264C49.0932 13.4713 48.2392 13.0937 47.0706 13.0937Z" fill="#939393"/>
<path d="M13.9031 3.2939C13.9031 2.18558 13.0001 1.27227 11.9033 1.43169C10.7654 1.59709 9.64976 1.9034 8.58263 2.34542C6.89583 3.04412 5.36316 4.06822 4.07213 5.35924C2.78111 6.65027 1.75701 8.18294 1.05831 9.86974C0.359614 11.5565 -7.29974e-07 13.3645 -7.73518e-07 15.1902C-8.17063e-07 17.016 0.359614 18.8239 1.05831 20.5107C1.75701 22.1975 2.78111 23.7302 4.07213 25.0212C5.36316 26.3123 6.89583 27.3364 8.58263 28.0351C10.2694 28.7338 12.0773 29.0934 13.9031 29.0934L13.9031 22.4199C12.9537 22.4199 12.0136 22.2329 11.1365 21.8695C10.2593 21.5062 9.46235 20.9737 8.79101 20.3024C8.11968 19.631 7.58715 18.834 7.22383 17.9569C6.8605 17.0798 6.6735 16.1396 6.6735 15.1902C6.6735 14.2408 6.8605 13.3007 7.22383 12.4236C7.58715 11.5464 8.11968 10.7495 8.79101 10.0781C9.46235 9.40679 10.2593 8.87426 11.1365 8.51094C11.3934 8.40453 11.6557 8.31324 11.922 8.23735C12.9879 7.93364 13.9031 7.06214 13.9031 5.95382L13.9031 3.2939Z" fill="#939393"/>
<path d="M25.6124 15.1904C26.7207 15.1904 27.634 16.0935 27.4746 17.1903C27.3092 18.3282 27.0028 19.4438 26.5608 20.5109C25.8621 22.1977 24.838 23.7304 23.547 25.0214C22.256 26.3125 20.7233 27.3366 19.0365 28.0352C17.3497 28.7339 15.5418 29.0936 13.716 29.0936L13.716 22.4201C14.6654 22.4201 15.6055 22.2331 16.4827 21.8697C17.3598 21.5064 18.1568 20.9739 18.8281 20.3026C19.4995 19.6312 20.032 18.8342 20.3953 17.9571C20.5017 17.7002 20.593 17.4379 20.6689 17.1716C20.9726 16.1057 21.8441 15.1904 22.9524 15.1904L25.6124 15.1904Z" fill="#939393"/>
<path d="M27.9571 1.29346C29.0654 1.29346 29.9787 2.19651 29.8193 3.2933C29.6539 4.43123 29.3476 5.54683 28.9056 6.61396C28.2069 8.30076 27.1828 9.83343 25.8917 11.1245C24.6007 12.4155 23.068 13.4396 21.3812 14.1383C20.3141 14.5803 19.1985 14.8866 18.0606 15.052C16.9638 15.2114 16.0607 14.2981 16.0607 13.1898L16.0607 10.5299C16.0607 9.42156 16.976 8.55006 18.0419 8.24635C18.3082 8.17046 18.5705 8.07917 18.8274 7.97277C19.7045 7.60944 20.5015 7.07691 21.1729 6.40558C21.8442 5.73424 22.3767 4.93726 22.74 4.06012C22.8464 3.80323 22.9377 3.54093 23.0136 3.27459C23.3173 2.20869 24.1888 1.29346 25.2972 1.29346L27.9571 1.29346Z" fill="#939393"/>
</svg>
