<svg width="148" height="33" viewBox="0 0 148 33" fill="none" xmlns="http://www.w3.org/2000/svg">
<path d="M139.028 9.89893C142.938 9.89893 145.5 12.6227 145.5 16.2633C145.5 16.8836 145.392 17.4499 145.284 17.9623H135.63C135.846 20.1197 137.652 21.2523 139.675 21.2523C141.266 21.2523 142.453 20.5782 143.289 19.7152L145.23 22.0344C143.531 23.6525 141.779 24.2997 139.513 24.2997C134.983 24.2997 131.989 21.1445 131.989 17.1263C131.989 13.1081 134.929 9.89893 139.028 9.89893ZM139.001 12.8384C137.275 12.8384 135.927 13.8632 135.63 15.5891H142.075V15.5622C141.94 13.8632 140.646 12.8384 139.001 12.8384Z" fill="#939393"/>
<path d="M121.709 10.2226H123.758V6.47412H127.156V10.2226H130.419V13.0273H127.156V19.149C127.156 20.4704 127.803 21.1446 129.071 21.1446C129.475 21.1446 130.15 21.0906 130.77 20.6861V23.7604C130.15 24.0841 129.314 24.2998 128.154 24.2998C125.349 24.2998 123.65 22.6548 123.65 19.6614V13.0273H121.709V10.2226Z" fill="#939393"/>
<path d="M106.226 10.2227H109.732V18.1512C109.732 20.1198 110.891 21.1716 112.51 21.1716C114.694 21.1716 115.665 19.1759 115.665 17.3152V10.2227H119.171V23.9762H115.8V22.0885C114.937 23.5178 113.588 24.2998 111.566 24.2998C108.33 24.2998 106.226 22.1963 106.226 18.5557V10.2227Z" fill="#939393"/>
<path d="M95.0308 10.2226H97.0803V6.47412H100.478V10.2226H103.741V13.0273H100.478V19.149C100.478 20.4704 101.125 21.1446 102.393 21.1446C102.797 21.1446 103.472 21.0906 104.092 20.6861V23.7604C103.472 24.0841 102.636 24.2998 101.476 24.2998C98.6714 24.2998 96.9724 22.6548 96.9724 19.6614V13.0273H95.0308V10.2226Z" fill="#939393"/>
<path d="M88.9815 23.9761V10.2226H92.4873V23.9761H88.9815ZM90.7074 4.2627C91.8131 4.2627 92.73 5.07173 92.73 6.23134C92.73 7.39095 91.8131 8.22695 90.7074 8.22695C89.5478 8.22695 88.6848 7.39095 88.6848 6.23134C88.6848 5.07173 89.5478 4.2627 90.7074 4.2627Z" fill="#939393"/>
<path d="M77.4648 10.2226H79.5144V6.47412H82.9123V10.2226H86.1754V13.0273H82.9123V19.149C82.9123 20.4704 83.5596 21.1446 84.827 21.1446C85.2316 21.1446 85.9057 21.0906 86.526 20.6861V23.7604C85.9057 24.0841 85.0697 24.2998 83.9101 24.2998C81.1055 24.2998 79.4065 22.6548 79.4065 19.6614V13.0273H77.4648V10.2226Z" fill="#939393"/>
<path d="M70.6232 24.2997C68.1422 24.2997 66.0117 23.1401 64.96 21.1984L67.3331 19.4455C68.0882 20.6321 69.14 21.4681 70.6232 21.4681C71.9176 21.4681 72.6997 21.0096 72.6997 20.2815C72.6997 19.4185 71.9716 19.068 69.7333 18.3129C66.9286 17.369 65.4184 16.2633 65.4184 13.998C65.4184 11.6249 67.7376 9.89893 70.7041 9.89893C72.9694 9.89893 74.8302 10.9776 75.7201 12.6227L73.3739 14.3216C72.8076 13.3778 71.9446 12.7036 70.6502 12.7036C69.5445 12.7036 68.7085 13.216 68.7085 13.9711C68.7085 14.6992 69.4366 15.0767 71.5671 15.8318C74.1829 16.7757 75.9898 17.6926 75.9898 20.2006C75.9898 22.5198 73.8054 24.2997 70.6232 24.2997Z" fill="#939393"/>
<path d="M49.5042 10.2225H52.8751V12.1103C53.7381 10.681 55.0865 9.89893 57.1091 9.89893C60.3452 9.89893 62.4487 12.0024 62.4487 15.6431V23.9761H58.9429V16.0476C58.9429 14.0789 57.7832 13.0272 56.1652 13.0272C53.9808 13.0272 53.01 14.9958 53.01 16.8836V23.9761H49.5042V10.2225Z" fill="#939393"/>
<path d="M41.9985 23.9761V10.2226H45.5044V23.9761H41.9985ZM43.7245 4.2627C44.8302 4.2627 45.7471 5.07173 45.7471 6.23134C45.7471 7.39095 44.8302 8.22695 43.7245 8.22695C42.5649 8.22695 41.7019 7.39095 41.7019 6.23134C41.7019 5.07173 42.5649 4.2627 43.7245 4.2627Z" fill="#939393"/>
<path fill-rule="evenodd" clip-rule="evenodd" d="M8.67468 1.76353C3.66953 4.18919 0.218262 9.31834 0.218262 15.2536C0.218262 23.5279 6.92597 30.2357 15.2003 30.2357C21.1357 30.2357 26.265 26.7842 28.6906 21.7789H15.2146L15.2004 21.7789C11.6188 21.7789 8.71116 18.8935 8.67513 15.3204H8.67468V1.76353ZM29.9755 17.7494C30.1116 16.9377 30.1824 16.1039 30.1824 15.2536C30.1824 6.97919 23.4747 0.271484 15.2003 0.271484C14.3499 0.271484 13.5159 0.342351 12.7041 0.478502V9.22218C13.4731 8.90354 14.3162 8.72769 15.2004 8.72769C18.8044 8.72769 21.726 11.6493 21.726 15.2533C21.726 16.1374 21.5501 16.9805 21.2315 17.7494H29.9755Z" fill="#939393"/>
</svg>
