<svg width="64" height="64" viewBox="0 0 64 64" fill="none" xmlns="http://www.w3.org/2000/svg">
<circle cx="32" cy="32" r="31.25" stroke="#FCFCFC" stroke-width="1.5"/>
<path d="M45.2927 40.4403C45.2927 40.9203 45.186 41.4137 44.9593 41.8937C44.7327 42.3737 44.4394 42.827 44.0527 43.2537C43.3994 43.9737 42.6793 44.4937 41.866 44.827C41.066 45.1603 40.1994 45.3337 39.266 45.3337C37.906 45.3337 36.4527 45.0137 34.9193 44.3603C33.386 43.707 31.8527 42.827 30.3327 41.7203C28.7993 40.6003 27.346 39.3603 25.9593 37.987C24.586 36.6003 23.346 35.147 22.2393 33.627C21.146 32.107 20.266 30.587 19.626 29.0803C18.986 27.5603 18.666 26.107 18.666 24.7203C18.666 23.8137 18.826 22.947 19.146 22.147C19.466 21.3337 19.9727 20.587 20.6793 19.9203C21.5327 19.0803 22.466 18.667 23.4527 18.667C23.826 18.667 24.1993 18.747 24.5327 18.907C24.8793 19.067 25.186 19.307 25.426 19.6537L28.5193 24.0137C28.7593 24.347 28.9327 24.6537 29.0527 24.947C29.1727 25.227 29.2393 25.507 29.2393 25.7603C29.2393 26.0803 29.146 26.4003 28.9593 26.707C28.786 27.0137 28.5327 27.3337 28.2127 27.6537L27.1993 28.707C27.0527 28.8537 26.986 29.027 26.986 29.2403C26.986 29.347 26.9993 29.4403 27.026 29.547C27.066 29.6537 27.106 29.7337 27.1327 29.8137C27.3727 30.2537 27.786 30.827 28.3727 31.5203C28.9727 32.2137 29.6127 32.9203 30.306 33.627C31.026 34.3337 31.7193 34.987 32.426 35.587C33.1193 36.1737 33.6927 36.5737 34.146 36.8137C34.2127 36.8403 34.2927 36.8803 34.386 36.9203C34.4927 36.9603 34.5993 36.9737 34.7193 36.9737C34.946 36.9737 35.1193 36.8937 35.266 36.747L36.2793 35.747C36.6127 35.4137 36.9327 35.1603 37.2393 35.0003C37.546 34.8137 37.8527 34.7203 38.186 34.7203C38.4393 34.7203 38.706 34.7737 38.9993 34.8937C39.2927 35.0137 39.5994 35.187 39.9327 35.4137L44.346 38.547C44.6927 38.787 44.9327 39.067 45.0793 39.4003C45.2127 39.7337 45.2927 40.067 45.2927 40.4403Z" stroke="#FCFCFC" stroke-width="1.5" stroke-miterlimit="10"/>
<path d="M40.6667 28.0007C40.6667 27.2007 40.04 25.974 39.1067 24.974C38.2533 24.054 37.12 23.334 36 23.334" stroke="#FCFCFC" stroke-width="1.5" stroke-linecap="round" stroke-linejoin="round"/>
<path d="M45.3333 28.0003C45.3333 22.8403 41.16 18.667 36 18.667" stroke="#FCFCFC" stroke-width="1.5" stroke-linecap="round" stroke-linejoin="round"/>
</svg>
